<?xml version="1.0" encoding="utf-8"?>
<!-- Generator: Adobe Illustrator 19.0.0, SVG Export Plug-In . SVG Version: 6.00 Build 0)  -->
<svg version="1.1" id="Capa_1" xmlns="http://www.w3.org/2000/svg" xmlns:xlink="http://www.w3.org/1999/xlink" x="0px" y="0px"
	 viewBox="-304 246 300 300" style="enable-background:new -304 246 300 300;" xml:space="preserve">
<style type="text/css">
	.st0{fill:#A6BD6E;}
	.st1{fill:#041941;}
</style>
<path id="XMLID_35_" class="st0" d="M-79.7,312H-27v163h-252V312h70v-15h-89v194h288V297h-77L-79.7,312z"/>
<g id="XMLID_17_">
	<path id="XMLID_26_" class="st1" d="M-208.7,297.7h-83.1c-2.2,0-3.9,1.7-3.9,3.9v184.3c0,2.2,1.7,3.9,3.9,3.9h276.6
		c2.2,0,3.9-1.7,3.9-3.9V301.6c0-2.2-1.7-3.9-3.9-3.9h-71.5v-7.8h79.3c2.2,0,3.9,1.7,3.9,3.9v199.9c0,2.2-1.7,3.9-3.9,3.9h-292.2
		c-2.2,0-3.9-1.7-3.9-3.9V293.8c0-2.2,1.7-3.9,3.9-3.9h90.8L-208.7,297.7z"/>
	<path id="XMLID_22_" class="st1" d="M-208.7,317h-66.6v153.5h243.6V317h-47.7v-7.5H-28c2.1,0,3.8,1.7,3.8,3.8v161
		c0,2.1-1.7,3.8-3.8,3.8h-251.1c-2.1,0-3.8-1.7-3.8-3.8v-161c0-2.1,1.7-3.8,3.8-3.8h70.4V317z"/>
	<g id="XMLID_28_">
		<path id="XMLID_21_" class="st1" d="M-187,546c-0.2,0-0.4,0-0.7-0.1c-2.1-0.4-3.6-2.4-3.2-4.5l8-47c0.4-2.1,2.4-3.5,4.5-3.2
			c2.1,0.4,3.6,2.4,3.2,4.5l-8,47C-183.4,544.7-185.1,546-187,546z"/>
		<path id="XMLID_19_" class="st1" d="M-120.1,546c-1.9,0-3.5-1.3-3.8-3.2l-8-47c-0.4-2.1,1.1-4.1,3.2-4.5c2.1-0.4,4.1,1.1,4.5,3.2
			l8,47c0.4,2.1-1.1,4.1-3.2,4.5C-119.7,546-119.9,546-120.1,546z"/>
	</g>
	<path id="XMLID_18_" class="st1" d="M-88.6,545.9h-129.8c-2.2,0-3.9-1.7-3.9-3.9c0-2.2,1.7-3.9,3.9-3.9h129.8
		c2.2,0,3.9,1.7,3.9,3.9C-84.7,544.1-86.5,545.9-88.6,545.9z"/>
</g>
<g id="XMLID_131_">
	<path id="XMLID_128_" class="st1" d="M-86.7,448.5c-8.2,0-14.8-6.6-14.8-14.8V324.1c0-0.4,0.1-0.8,0.2-1.2l11.5-26.5
		c0.5-1.1,1.5-1.8,2.7-1.8s2.3,0.7,2.8,1.8l12.1,26.5c0.2,0.4,0.3,0.8,0.3,1.2v109.6C-72,441.9-78.6,448.5-86.7,448.5z M-95.5,324.7
		v109c0,4.8,3.9,8.8,8.8,8.8s8.8-3.9,8.8-8.8v-109l-9-19.7L-95.5,324.7z"/>
</g>
<g id="XMLID_127_">
	<rect id="XMLID_103_" x="-191.2" y="266.2" class="st0" width="86.9" height="23"/>
	<path id="XMLID_104_" class="st1" d="M-104.3,292.3h-86.9c-1.7,0-3-1.3-3-3v-23c0-1.7,1.3-3,3-3h86.9c1.7,0,3,1.3,3,3v23
		C-101.3,290.9-102.6,292.3-104.3,292.3z M-188.2,286.3h80.9v-17h-80.9C-188.2,269.3-188.2,286.3-188.2,286.3z"/>
</g>
<g id="XMLID_102_">
	<rect id="XMLID_44_" x="-191.2" y="362.2" class="st0" width="50.4" height="29.8"/>
	<path id="XMLID_91_" class="st1" d="M-140.8,395h-50.4c-1.7,0-3-1.3-3-3v-29.8c0-1.7,1.3-3,3-3h50.4c1.7,0,3,1.3,3,3V392
		C-137.8,393.7-139.1,395-140.8,395z M-188.2,389h44.4v-23.8h-44.4C-188.2,365.2-188.2,389-188.2,389z"/>
</g>
<path id="XMLID_90_" class="st1" d="M-104.3,305.5h-86.9c-1.7,0-3-1.3-3-3s1.3-3,3-3h86.9c1.7,0,3,1.3,3,3S-102.6,305.5-104.3,305.5
	z"/>
<path id="XMLID_75_" class="st1" d="M-129.1,321.8h-62.1c-1.7,0-3-1.3-3-3c0-1.7,1.3-3,3-3h62.1c1.7,0,3,1.3,3,3
	C-126.1,320.5-127.4,321.8-129.1,321.8z"/>
<path id="XMLID_74_" class="st1" d="M-129.1,335.6h-62.1c-1.7,0-3-1.3-3-3c0-1.7,1.3-3,3-3h62.1c1.7,0,3,1.3,3,3
	C-126.1,334.3-127.4,335.6-129.1,335.6z"/>
<path id="XMLID_73_" class="st1" d="M-129.1,349.3h-62.1c-1.7,0-3-1.3-3-3c0-1.7,1.3-3,3-3h62.1c1.7,0,3,1.3,3,3
	C-126.1,348-127.4,349.3-129.1,349.3z"/>
<path id="XMLID_47_" class="st1" d="M-75,424.7h-23.6c-1.7,0-3-1.3-3-3c0-1.7,1.3-3,3-3H-75c1.7,0,3,1.3,3,3
	C-72,423.4-73.3,424.7-75,424.7z"/>
<path id="XMLID_46_" class="st1" d="M-75,327.1h-23.6c-1.7,0-3-1.3-3-3c0-1.7,1.3-3,3-3H-75c1.7,0,3,1.3,3,3
	C-72,325.8-73.3,327.1-75,327.1z"/>
<path id="XMLID_45_" class="st1" d="M-110,395h-122c-1.7,0-3-1.3-3-3s1.3-3,3-3h122c1.7,0,3,1.3,3,3S-108.3,395-110,395z"/>
<path id="XMLID_132_" class="st1" d="M-208.7,391.4c-1.7,0-3-1.3-3-3V249c0-1.7,1.3-3,3-3h122c1.7,0,3,1.3,3,3v33.3c0,1.7-1.3,3-3,3
	s-3-1.3-3-3V252h-116v136.4C-205.7,390-207,391.4-208.7,391.4z"/>
</svg>
