<?xml version="1.0" encoding="utf-8"?>
<!-- Generator: Adobe Illustrator 19.0.0, SVG Export Plug-In . SVG Version: 6.00 Build 0)  -->
<svg version="1.1" xmlns="http://www.w3.org/2000/svg" xmlns:xlink="http://www.w3.org/1999/xlink" x="0px" y="0px"
	 viewBox="0 0 640 480" style="enable-background:new 0 0 640 480;" xml:space="preserve">
<g id="Capa_1">
</g>
<g id="Capa_2">
	<g id="XMLID_2_">
		<g id="XMLID_50_">
			<g id="XMLID_200_">
				<path fill="#240e35" id="XMLID_214_" d="M152.1,182.7h9v65.1h33.3v8.8h-42.3V182.7z"/>
				<path fill="#240e35" id="XMLID_211_" d="M252,193.2c4,6.5,5.9,14.9,5.9,25.1c0,11-2.3,20.2-6.8,27.5c-5.3,8.6-12.9,12.9-22.7,12.9
					c-9.2,0-16.4-3.8-21.6-11.3c-4.7-7.2-7-16.4-7-27.5c0-10,2-18.5,6-25.7c5.1-9.1,12.8-13.7,22.8-13.7
					C239.2,180.7,247,184.9,252,193.2z M244.9,240.3c3.2-6.3,4.8-13.6,4.8-21.8c0-8.7-1.8-15.7-5.5-21c-3.7-5.3-8.7-8-15-8
					c-6.2,0-11.2,2.6-15.1,7.9c-3.9,5.3-5.8,13-5.8,23.2c0,8.2,1.7,15.1,5,20.7c3.3,5.6,8.8,8.4,16.3,8.4
					C236.6,249.8,241.7,246.7,244.9,240.3z"/>
				<path fill="#240e35" id="XMLID_209_" d="M263.2,182.7h10.5l19.1,35.5l19.1-35.5h10.6l-25.2,44.1v29.8h-9v-29.8L263.2,182.7z"/>
				<path fill="#240e35" id="XMLID_206_" d="M374.4,193.2c4,6.5,5.9,14.9,5.9,25.1c0,11-2.3,20.2-6.8,27.5c-5.3,8.6-12.9,12.9-22.7,12.9
					c-9.2,0-16.4-3.8-21.6-11.3c-4.7-7.2-7-16.4-7-27.5c0-10,2-18.5,6-25.7c5.1-9.1,12.8-13.7,22.8-13.7
					C361.5,180.7,369.3,184.9,374.4,193.2z M367.3,240.3c3.2-6.3,4.8-13.6,4.8-21.8c0-8.7-1.8-15.7-5.5-21c-3.7-5.3-8.7-8-15-8
					c-6.2,0-11.2,2.6-15.1,7.9s-5.8,13-5.8,23.2c0,8.2,1.7,15.1,5,20.7c3.3,5.6,8.8,8.4,16.3,8.4C359,249.8,364.1,246.7,367.3,240.3
					z"/>
				<path fill="#240e35" id="XMLID_204_" d="M393.8,182.7h9v65.1h33.3v8.8h-42.3V182.7z"/>
				<path fill="#240e35" id="XMLID_201_" d="M466.8,182.7h10.2l24.1,73.9h-9.9l-6.9-22.1h-26.1l-7.2,22.1h-9.2L466.8,182.7z M481.7,226.3
					l-10.2-32.6l-10.6,32.6H481.7z"/>
			</g>
		</g>
		<g id="XMLID_1_">
			<path fill="#240e35" id="XMLID_3_" d="M130.9,286.8h2.2v8.9h5.3v1.9h-7.5V286.8z"/>
			<path fill="#240e35" id="XMLID_5_" d="M149.9,286.8h2.5l3.7,10.8h-2.4l-0.7-2.2h-3.9l-0.7,2.2h-2.3L149.9,286.8z M149.8,293.5h2.7l-1.3-4.2
				L149.8,293.5z"/>
			<path fill="#240e35" id="XMLID_8_" d="M165.2,286.8l1.4,6.2l0.3,1.7l0.3-1.7l1.2-6.2h2.3l1.3,6.2l0.3,1.7l0.3-1.7l1.4-6.2h2.3l-3,10.8h-2.1
				l-1.3-6.3l-0.4-2.1l-0.4,2.1l-1.3,6.3h-2.1l-3-10.8H165.2z"/>
			<path fill="#240e35" id="XMLID_10_" d="M197.3,294.2c0.1,0.5,0.2,0.9,0.4,1.1c0.4,0.4,1,0.7,1.9,0.7c0.5,0,1-0.1,1.3-0.2
				c0.6-0.2,0.9-0.6,0.9-1.3c0-0.4-0.2-0.6-0.5-0.8c-0.3-0.2-0.8-0.4-1.5-0.5l-1.1-0.3c-1.1-0.3-1.9-0.5-2.3-0.8
				c-0.7-0.5-1.1-1.3-1.1-2.3c0-1,0.3-1.8,1-2.4c0.7-0.6,1.7-1,3.1-1c1.1,0,2.1,0.3,2.9,0.9c0.8,0.6,1.2,1.5,1.3,2.6h-2.1
				c0-0.6-0.3-1.1-0.9-1.4c-0.4-0.2-0.8-0.3-1.3-0.3c-0.6,0-1,0.1-1.4,0.4s-0.5,0.6-0.5,1c0,0.4,0.2,0.7,0.5,0.9
				c0.2,0.1,0.7,0.3,1.4,0.4l1.9,0.4c0.8,0.2,1.4,0.5,1.8,0.8c0.6,0.5,0.9,1.2,0.9,2.2c0,1-0.4,1.8-1.1,2.5c-0.7,0.7-1.8,1-3.2,1
				c-1.4,0-2.5-0.3-3.3-1c-0.8-0.6-1.2-1.5-1.2-2.6H197.3z"/>
			<path fill="#240e35" id="XMLID_12_" d="M213.5,287.9c0.9-0.9,1.9-1.3,3.3-1.3c1.8,0,3,0.6,3.9,1.8c0.4,0.7,0.7,1.3,0.7,2h-2.2
				c-0.1-0.5-0.3-0.9-0.5-1.2c-0.4-0.5-1-0.7-1.8-0.7c-0.8,0-1.4,0.3-1.9,1c-0.5,0.7-0.7,1.6-0.7,2.8s0.2,2.1,0.7,2.7
				c0.5,0.6,1.1,0.9,1.8,0.9c0.8,0,1.3-0.3,1.7-0.8c0.2-0.3,0.4-0.7,0.5-1.3h2.2c-0.2,1.2-0.7,2.1-1.5,2.9s-1.8,1.1-3,1.1
				c-1.5,0-2.7-0.5-3.6-1.5c-0.9-1-1.3-2.4-1.3-4.1C212.1,290.4,212.6,288.9,213.5,287.9z"/>
			<path fill="#240e35" id="XMLID_15_" d="M230.1,297.6v-10.8h2.2v4.1h4.1v-4.1h2.2v10.8h-2.2v-4.8h-4.1v4.8H230.1z"/>
			<path fill="#240e35" id="XMLID_18_" d="M255.9,296.6c-0.8,0.8-2,1.3-3.5,1.3c-1.5,0-2.7-0.4-3.5-1.3c-1.1-1-1.6-2.5-1.6-4.5c0-2,0.5-3.5,1.6-4.5
				c0.8-0.8,2-1.3,3.5-1.3c1.5,0,2.7,0.4,3.5,1.3c1.1,1,1.6,2.5,1.6,4.5C257.5,294.1,257,295.6,255.9,296.6z M254.5,295
				c0.5-0.7,0.8-1.6,0.8-2.8c0-1.2-0.3-2.1-0.8-2.8c-0.5-0.7-1.2-1-2.1-1c-0.9,0-1.6,0.3-2.1,1s-0.8,1.6-0.8,2.8s0.3,2.2,0.8,2.8
				s1.2,1,2.1,1C253.3,296,254,295.6,254.5,295z"/>
			<path fill="#240e35" id="XMLID_21_" d="M274.4,296.6c-0.8,0.8-2,1.3-3.5,1.3c-1.5,0-2.7-0.4-3.5-1.3c-1.1-1-1.6-2.5-1.6-4.5c0-2,0.5-3.5,1.6-4.5
				c0.8-0.8,2-1.3,3.5-1.3c1.5,0,2.7,0.4,3.5,1.3c1.1,1,1.6,2.5,1.6,4.5C276,294.1,275.4,295.6,274.4,296.6z M273,295
				c0.5-0.7,0.8-1.6,0.8-2.8c0-1.2-0.3-2.1-0.8-2.8c-0.5-0.7-1.2-1-2.1-1c-0.9,0-1.6,0.3-2.1,1s-0.8,1.6-0.8,2.8s0.3,2.2,0.8,2.8
				s1.2,1,2.1,1C271.8,296,272.5,295.6,273,295z"/>
			<path fill="#240e35" id="XMLID_24_" d="M284.7,286.8h2.2v8.9h5.3v1.9h-7.5V286.8z"/>
			<path fill="#240e35" id="XMLID_26_" d="M313.6,287.2v12.4h-2.1v-12.4H313.6z"/>
			<path fill="#240e35" id="XMLID_28_" d="M335.5,286.8h2.2v8.9h5.3v1.9h-7.5V286.8z"/>
			<path fill="#240e35" id="XMLID_30_" d="M359.6,296.6c-0.8,0.8-2,1.3-3.5,1.3c-1.5,0-2.7-0.4-3.5-1.3c-1.1-1-1.6-2.5-1.6-4.5c0-2,0.5-3.5,1.6-4.5
				c0.8-0.8,2-1.3,3.5-1.3c1.5,0,2.7,0.4,3.5,1.3c1.1,1,1.6,2.5,1.6,4.5C361.2,294.1,360.7,295.6,359.6,296.6z M358.2,295
				c0.5-0.7,0.8-1.6,0.8-2.8c0-1.2-0.3-2.1-0.8-2.8c-0.5-0.7-1.2-1-2.1-1s-1.6,0.3-2.1,1c-0.5,0.7-0.8,1.6-0.8,2.8s0.3,2.2,0.8,2.8
				c0.5,0.7,1.2,1,2.1,1S357.7,295.6,358.2,295z"/>
			<path fill="#240e35" id="XMLID_33_" d="M371.5,294.2c0.1,0.5,0.2,0.9,0.4,1.1c0.4,0.4,1,0.7,1.9,0.7c0.5,0,1-0.1,1.3-0.2
				c0.6-0.2,0.9-0.6,0.9-1.3c0-0.4-0.2-0.6-0.5-0.8c-0.3-0.2-0.8-0.4-1.5-0.5L373,293c-1.1-0.3-1.9-0.5-2.3-0.8
				c-0.7-0.5-1.1-1.3-1.1-2.3c0-1,0.3-1.8,1-2.4c0.7-0.6,1.7-1,3.1-1c1.1,0,2.1,0.3,2.9,0.9c0.8,0.6,1.2,1.5,1.3,2.6h-2.1
				c0-0.6-0.3-1.1-0.9-1.4c-0.4-0.2-0.8-0.3-1.3-0.3c-0.6,0-1,0.1-1.4,0.4c-0.3,0.2-0.5,0.6-0.5,1c0,0.4,0.2,0.7,0.5,0.9
				c0.2,0.1,0.7,0.3,1.4,0.4l1.9,0.4c0.8,0.2,1.4,0.5,1.8,0.8c0.6,0.5,0.9,1.2,0.9,2.2c0,1-0.4,1.8-1.1,2.5c-0.7,0.7-1.8,1-3.2,1
				c-1.4,0-2.5-0.3-3.3-1c-0.8-0.6-1.2-1.5-1.2-2.6H371.5z"/>
			<path fill="#240e35" id="XMLID_35_" d="M400.3,286.8h2.5l3.7,10.8h-2.4l-0.7-2.2h-3.9l-0.7,2.2h-2.3L400.3,286.8z M400.2,293.5h2.7l-1.3-4.2
				L400.2,293.5z"/>
			<path fill="#240e35" id="XMLID_38_" d="M414.9,286.8h2.3l4.2,7.5v-7.5h2.1v10.8h-2.2l-4.3-7.7v7.7h-2.1V286.8z"/>
			<path fill="#240e35" id="XMLID_40_" d="M439.6,290.2c-0.2-0.7-0.6-1.3-1.2-1.5c-0.4-0.2-0.8-0.2-1.2-0.2c-0.9,0-1.6,0.3-2.1,1
				c-0.5,0.7-0.8,1.6-0.8,3c0,1.3,0.3,2.3,0.9,2.8c0.6,0.6,1.3,0.8,2,0.8c0.7,0,1.3-0.2,1.8-0.7s0.8-1,0.9-1.7h-2.4v-1.8h4.4v5.8
				h-1.5l-0.2-1.3c-0.4,0.5-0.8,0.9-1.1,1.1c-0.6,0.4-1.3,0.5-2.2,0.5c-1.4,0-2.6-0.5-3.4-1.5c-0.9-1-1.4-2.4-1.4-4.1
				c0-1.7,0.5-3.1,1.4-4.2c0.9-1.1,2.2-1.6,3.7-1.6c1.3,0,2.4,0.3,3.2,1c0.8,0.7,1.3,1.6,1.4,2.6H439.6z"/>
			<path fill="#240e35" id="XMLID_42_" d="M458.8,288.7h-5.6v2.3h5.1v1.9h-5.1v2.8h5.9v1.9h-8v-10.8h7.8V288.7z"/>
			<path fill="#240e35" id="XMLID_44_" d="M467.8,286.8h2.2v8.9h5.3v1.9h-7.5V286.8z"/>
			<path fill="#240e35" id="XMLID_46_" d="M491.6,288.7H486v2.3h5.1v1.9H486v2.8h5.9v1.9h-8v-10.8h7.8V288.7z"/>
			<path fill="#240e35" id="XMLID_48_" d="M502.2,294.2c0.1,0.5,0.2,0.9,0.4,1.1c0.4,0.4,1,0.7,1.9,0.7c0.5,0,1-0.1,1.3-0.2
				c0.6-0.2,0.9-0.6,0.9-1.3c0-0.4-0.2-0.6-0.5-0.8c-0.3-0.2-0.8-0.4-1.5-0.5l-1.1-0.3c-1.1-0.3-1.9-0.5-2.3-0.8
				c-0.7-0.5-1.1-1.3-1.1-2.3c0-1,0.3-1.8,1-2.4c0.7-0.6,1.7-1,3.1-1c1.1,0,2.1,0.3,2.9,0.9c0.8,0.6,1.2,1.5,1.3,2.6h-2.1
				c0-0.6-0.3-1.1-0.9-1.4c-0.4-0.2-0.8-0.3-1.3-0.3c-0.6,0-1,0.1-1.4,0.4c-0.3,0.2-0.5,0.6-0.5,1c0,0.4,0.2,0.7,0.5,0.9
				c0.2,0.1,0.7,0.3,1.4,0.4l1.9,0.4c0.8,0.2,1.4,0.5,1.8,0.8c0.6,0.5,0.9,1.2,0.9,2.2c0,1-0.4,1.8-1.1,2.5c-0.7,0.7-1.8,1-3.2,1
				c-1.4,0-2.5-0.3-3.3-1c-0.8-0.6-1.2-1.5-1.2-2.6H502.2z"/>
		</g>
	</g>
</g>
</svg>
