<svg width="388" height="127" xmlns="http://www.w3.org/2000/svg">

 <g>
  <title>background</title>
  <rect fill="none" id="canvas_background" height="129" width="390" y="-1" x="-1"/>
 </g>
 <g>
  <title>Layer 1</title>
  <g id="Capa_1"/>
  <g id="Capa_2">
   <g id="XMLID_2_">
    <g id="XMLID_50_">
     <g id="XMLID_200_">
      <path d="m25.1,5.7l9,0l0,65.1l33.3,0l0,8.8l-42.3,0l0,-73.9z" id="XMLID_214_" fill="#240e35"/>
      <path d="m125,16.2c4,6.5 5.9,14.9 5.9,25.1c0,11 -2.3,20.2 -6.8,27.5c-5.3,8.6 -12.9,12.9 -22.7,12.9c-9.2,0 -16.4,-3.8 -21.6,-11.3c-4.7,-7.2 -7,-16.4 -7,-27.5c0,-10 2,-18.5 6,-25.7c5.1,-9.1 12.8,-13.7 22.8,-13.7c10.6,0.2 18.4,4.4 23.4,12.7zm-7.1,47.1c3.2,-6.3 4.8,-13.6 4.8,-21.8c0,-8.7 -1.8,-15.7 -5.5,-21c-3.7,-5.3 -8.7,-8 -15,-8c-6.2,0 -11.2,2.6 -15.1,7.9c-3.9,5.3 -5.8,13 -5.8,23.2c0,8.2 1.7,15.1 5,20.7c3.3,5.6 8.8,8.4 16.3,8.4c7,0.1 12.1,-3 15.3,-9.4z" id="XMLID_211_" fill="#240e35"/>
      <path d="m136.2,5.7l10.5,0l19.1,35.5l19.1,-35.5l10.6,0l-25.2,44.1l0,29.8l-9,0l0,-29.8l-25.1,-44.1z" id="XMLID_209_" fill="#240e35"/>
      <path d="m247.4,16.2c4,6.5 5.9,14.9 5.9,25.1c0,11 -2.3,20.2 -6.8,27.5c-5.3,8.6 -12.9,12.9 -22.7,12.9c-9.2,0 -16.4,-3.8 -21.6,-11.3c-4.7,-7.2 -7,-16.4 -7,-27.5c0,-10 2,-18.5 6,-25.7c5.1,-9.1 12.8,-13.7 22.8,-13.7c10.5,0.2 18.3,4.4 23.4,12.7zm-7.1,47.1c3.2,-6.3 4.8,-13.6 4.8,-21.8c0,-8.7 -1.8,-15.7 -5.5,-21c-3.7,-5.3 -8.7,-8 -15,-8c-6.2,0 -11.2,2.6 -15.1,7.9s-5.8,13 -5.8,23.2c0,8.2 1.7,15.1 5,20.7c3.3,5.6 8.8,8.4 16.3,8.4c7,0.1 12.1,-3 15.3,-9.4z" id="XMLID_206_" fill="#240e35"/>
      <path d="m266.8,5.7l9,0l0,65.1l33.3,0l0,8.8l-42.3,0l0,-73.9z" id="XMLID_204_" fill="#240e35"/>
      <path d="m339.8,5.7l10.2,0l24.1,73.9l-9.9,0l-6.9,-22.1l-26.1,0l-7.2,22.1l-9.2,0l25,-73.9zm14.9,43.6l-10.2,-32.6l-10.6,32.6l20.8,0z" id="XMLID_201_" fill="#240e35"/>
     </g>
    </g>
    <g id="XMLID_1_">
     <path d="m3.9,109.8l2.2,0l0,8.9l5.3,0l0,1.9l-7.5,0l0,-10.8z" id="XMLID_3_" fill="#240e35"/>
     <path d="m22.9,109.8l2.5,0l3.7,10.8l-2.4,0l-0.7,-2.2l-3.9,0l-0.7,2.2l-2.3,0l3.8,-10.8zm-0.1,6.7l2.7,0l-1.3,-4.2l-1.4,4.2z" id="XMLID_5_" fill="#240e35"/>
     <path d="m38.2,109.8l1.4,6.2l0.3,1.7l0.3,-1.7l1.2,-6.2l2.3,0l1.3,6.2l0.3,1.7l0.3,-1.7l1.4,-6.2l2.3,0l-3,10.8l-2.1,0l-1.3,-6.3l-0.4,-2.1l-0.4,2.1l-1.3,6.3l-2.1,0l-3,-10.8l2.5,0z" id="XMLID_8_" fill="#240e35"/>
     <path d="m70.3,117.2c0.1,0.5 0.2,0.9 0.4,1.1c0.4,0.4 1,0.7 1.9,0.7c0.5,0 1,-0.1 1.3,-0.2c0.6,-0.2 0.9,-0.6 0.9,-1.3c0,-0.4 -0.2,-0.6 -0.5,-0.8c-0.3,-0.2 -0.8,-0.4 -1.5,-0.5l-1.1,-0.3c-1.1,-0.3 -1.9,-0.5 -2.3,-0.8c-0.7,-0.5 -1.1,-1.3 -1.1,-2.3c0,-1 0.3,-1.8 1,-2.4c0.7,-0.6 1.7,-1 3.1,-1c1.1,0 2.1,0.3 2.9,0.9c0.8,0.6 1.2,1.5 1.3,2.6l-2.1,0c0,-0.6 -0.3,-1.1 -0.9,-1.4c-0.4,-0.2 -0.8,-0.3 -1.3,-0.3c-0.6,0 -1,0.1 -1.4,0.4s-0.5,0.6 -0.5,1c0,0.4 0.2,0.7 0.5,0.9c0.2,0.1 0.7,0.3 1.4,0.4l1.9,0.4c0.8,0.2 1.4,0.5 1.8,0.8c0.6,0.5 0.9,1.2 0.9,2.2c0,1 -0.4,1.8 -1.1,2.5c-0.7,0.7 -1.8,1 -3.2,1c-1.4,0 -2.5,-0.3 -3.3,-1c-0.8,-0.6 -1.2,-1.5 -1.2,-2.6l2.2,0z" id="XMLID_10_" fill="#240e35"/>
     <path d="m86.5,110.9c0.9,-0.9 1.9,-1.3 3.3,-1.3c1.8,0 3,0.6 3.9,1.8c0.4,0.7 0.7,1.3 0.7,2l-2.2,0c-0.1,-0.5 -0.3,-0.9 -0.5,-1.2c-0.4,-0.5 -1,-0.7 -1.8,-0.7c-0.8,0 -1.4,0.3 -1.9,1c-0.5,0.7 -0.7,1.6 -0.7,2.8s0.2,2.1 0.7,2.7c0.5,0.6 1.1,0.9 1.8,0.9c0.8,0 1.3,-0.3 1.7,-0.8c0.2,-0.3 0.4,-0.7 0.5,-1.3l2.2,0c-0.2,1.2 -0.7,2.1 -1.5,2.9s-1.8,1.1 -3,1.1c-1.5,0 -2.7,-0.5 -3.6,-1.5c-0.9,-1 -1.3,-2.4 -1.3,-4.1c0.3,-1.8 0.8,-3.3 1.7,-4.3z" id="XMLID_12_" fill="#240e35"/>
     <path d="m103.1,120.6l0,-10.8l2.2,0l0,4.1l4.1,0l0,-4.1l2.2,0l0,10.8l-2.2,0l0,-4.8l-4.1,0l0,4.8l-2.2,0z" id="XMLID_15_" fill="#240e35"/>
     <path d="m128.9,119.6c-0.8,0.8 -2,1.3 -3.5,1.3c-1.5,0 -2.7,-0.4 -3.5,-1.3c-1.1,-1 -1.6,-2.5 -1.6,-4.5c0,-2 0.5,-3.5 1.6,-4.5c0.8,-0.8 2,-1.3 3.5,-1.3c1.5,0 2.7,0.4 3.5,1.3c1.1,1 1.6,2.5 1.6,4.5c0,2 -0.5,3.5 -1.6,4.5zm-1.4,-1.6c0.5,-0.7 0.8,-1.6 0.8,-2.8c0,-1.2 -0.3,-2.1 -0.8,-2.8c-0.5,-0.7 -1.2,-1 -2.1,-1c-0.9,0 -1.6,0.3 -2.1,1s-0.8,1.6 -0.8,2.8s0.3,2.2 0.8,2.8s1.2,1 2.1,1c0.9,0 1.6,-0.4 2.1,-1z" id="XMLID_18_" fill="#240e35"/>
     <path d="m147.4,119.6c-0.8,0.8 -2,1.3 -3.5,1.3c-1.5,0 -2.7,-0.4 -3.5,-1.3c-1.1,-1 -1.6,-2.5 -1.6,-4.5c0,-2 0.5,-3.5 1.6,-4.5c0.8,-0.8 2,-1.3 3.5,-1.3c1.5,0 2.7,0.4 3.5,1.3c1.1,1 1.6,2.5 1.6,4.5c0,2 -0.6,3.5 -1.6,4.5zm-1.4,-1.6c0.5,-0.7 0.8,-1.6 0.8,-2.8c0,-1.2 -0.3,-2.1 -0.8,-2.8c-0.5,-0.7 -1.2,-1 -2.1,-1c-0.9,0 -1.6,0.3 -2.1,1s-0.8,1.6 -0.8,2.8s0.3,2.2 0.8,2.8s1.2,1 2.1,1c0.9,0 1.6,-0.4 2.1,-1z" id="XMLID_21_" fill="#240e35"/>
     <path d="m157.7,109.8l2.2,0l0,8.9l5.3,0l0,1.9l-7.5,0l0,-10.8z" id="XMLID_24_" fill="#240e35"/>
     <path d="m186.6,110.2l0,12.4l-2.1,0l0,-12.4l2.1,0z" id="XMLID_26_" fill="#240e35"/>
     <path d="m208.5,109.8l2.2,0l0,8.9l5.3,0l0,1.9l-7.5,0l0,-10.8z" id="XMLID_28_" fill="#240e35"/>
     <path d="m232.6,119.6c-0.8,0.8 -2,1.3 -3.5,1.3c-1.5,0 -2.7,-0.4 -3.5,-1.3c-1.1,-1 -1.6,-2.5 -1.6,-4.5c0,-2 0.5,-3.5 1.6,-4.5c0.8,-0.8 2,-1.3 3.5,-1.3c1.5,0 2.7,0.4 3.5,1.3c1.1,1 1.6,2.5 1.6,4.5c0,2 -0.5,3.5 -1.6,4.5zm-1.4,-1.6c0.5,-0.7 0.8,-1.6 0.8,-2.8c0,-1.2 -0.3,-2.1 -0.8,-2.8c-0.5,-0.7 -1.2,-1 -2.1,-1s-1.6,0.3 -2.1,1c-0.5,0.7 -0.8,1.6 -0.8,2.8s0.3,2.2 0.8,2.8c0.5,0.7 1.2,1 2.1,1s1.6,-0.4 2.1,-1z" id="XMLID_30_" fill="#240e35"/>
     <path d="m244.5,117.2c0.1,0.5 0.2,0.9 0.4,1.1c0.4,0.4 1,0.7 1.9,0.7c0.5,0 1,-0.1 1.3,-0.2c0.6,-0.2 0.9,-0.6 0.9,-1.3c0,-0.4 -0.2,-0.6 -0.5,-0.8c-0.3,-0.2 -0.8,-0.4 -1.5,-0.5l-1,-0.2c-1.1,-0.3 -1.9,-0.5 -2.3,-0.8c-0.7,-0.5 -1.1,-1.3 -1.1,-2.3c0,-1 0.3,-1.8 1,-2.4c0.7,-0.6 1.7,-1 3.1,-1c1.1,0 2.1,0.3 2.9,0.9c0.8,0.6 1.2,1.5 1.3,2.6l-2.1,0c0,-0.6 -0.3,-1.1 -0.9,-1.4c-0.4,-0.2 -0.8,-0.3 -1.3,-0.3c-0.6,0 -1,0.1 -1.4,0.4c-0.3,0.2 -0.5,0.6 -0.5,1c0,0.4 0.2,0.7 0.5,0.9c0.2,0.1 0.7,0.3 1.4,0.4l1.9,0.4c0.8,0.2 1.4,0.5 1.8,0.8c0.6,0.5 0.9,1.2 0.9,2.2c0,1 -0.4,1.8 -1.1,2.5c-0.7,0.7 -1.8,1 -3.2,1c-1.4,0 -2.5,-0.3 -3.3,-1c-0.8,-0.6 -1.2,-1.5 -1.2,-2.6l2.1,0l0,-0.1z" id="XMLID_33_" fill="#240e35"/>
     <path d="m273.3,109.8l2.5,0l3.7,10.8l-2.4,0l-0.7,-2.2l-3.9,0l-0.7,2.2l-2.3,0l3.8,-10.8zm-0.1,6.7l2.7,0l-1.3,-4.2l-1.4,4.2z" id="XMLID_35_" fill="#240e35"/>
     <path d="m287.9,109.8l2.3,0l4.2,7.5l0,-7.5l2.1,0l0,10.8l-2.2,0l-4.3,-7.7l0,7.7l-2.1,0l0,-10.8z" id="XMLID_38_" fill="#240e35"/>
     <path d="m312.6,113.2c-0.2,-0.7 -0.6,-1.3 -1.2,-1.5c-0.4,-0.2 -0.8,-0.2 -1.2,-0.2c-0.9,0 -1.6,0.3 -2.1,1c-0.5,0.7 -0.8,1.6 -0.8,3c0,1.3 0.3,2.3 0.9,2.8c0.6,0.6 1.3,0.8 2,0.8c0.7,0 1.3,-0.2 1.8,-0.7s0.8,-1 0.9,-1.7l-2.4,0l0,-1.8l4.4,0l0,5.8l-1.5,0l-0.2,-1.3c-0.4,0.5 -0.8,0.9 -1.1,1.1c-0.6,0.4 -1.3,0.5 -2.2,0.5c-1.4,0 -2.6,-0.5 -3.4,-1.5c-0.9,-1 -1.4,-2.4 -1.4,-4.1c0,-1.7 0.5,-3.1 1.4,-4.2c0.9,-1.1 2.2,-1.6 3.7,-1.6c1.3,0 2.4,0.3 3.2,1c0.8,0.7 1.3,1.6 1.4,2.6l-2.2,0z" id="XMLID_40_" fill="#240e35"/>
     <path d="m331.8,111.7l-5.6,0l0,2.3l5.1,0l0,1.9l-5.1,0l0,2.8l5.9,0l0,1.9l-8,0l0,-10.8l7.8,0l0,1.9l-0.1,0z" id="XMLID_42_" fill="#240e35"/>
     <path d="m340.8,109.8l2.2,0l0,8.9l5.3,0l0,1.9l-7.5,0l0,-10.8z" id="XMLID_44_" fill="#240e35"/>
     <path d="m364.6,111.7l-5.6,0l0,2.3l5.1,0l0,1.9l-5.1,0l0,2.8l5.9,0l0,1.9l-8,0l0,-10.8l7.8,0l0,1.9l-0.1,0z" id="XMLID_46_" fill="#240e35"/>
     <path d="m375.2,117.2c0.1,0.5 0.2,0.9 0.4,1.1c0.4,0.4 1,0.7 1.9,0.7c0.5,0 1,-0.1 1.3,-0.2c0.6,-0.2 0.9,-0.6 0.9,-1.3c0,-0.4 -0.2,-0.6 -0.5,-0.8c-0.3,-0.2 -0.8,-0.4 -1.5,-0.5l-1.1,-0.3c-1.1,-0.3 -1.9,-0.5 -2.3,-0.8c-0.7,-0.5 -1.1,-1.3 -1.1,-2.3c0,-1 0.3,-1.8 1,-2.4c0.7,-0.6 1.7,-1 3.1,-1c1.1,0 2.1,0.3 2.9,0.9c0.8,0.6 1.2,1.5 1.3,2.6l-2.1,0c0,-0.6 -0.3,-1.1 -0.9,-1.4c-0.4,-0.2 -0.8,-0.3 -1.3,-0.3c-0.6,0 -1,0.1 -1.4,0.4c-0.3,0.2 -0.5,0.6 -0.5,1c0,0.4 0.2,0.7 0.5,0.9c0.2,0.1 0.7,0.3 1.4,0.4l1.9,0.4c0.8,0.2 1.4,0.5 1.8,0.8c0.6,0.5 0.9,1.2 0.9,2.2c0,1 -0.4,1.8 -1.1,2.5c-0.7,0.7 -1.8,1 -3.2,1c-1.4,0 -2.5,-0.3 -3.3,-1c-0.8,-0.6 -1.2,-1.5 -1.2,-2.6l2.2,0z" id="XMLID_48_" fill="#240e35"/>
    </g>
   </g>
  </g>
 </g>
</svg>